<svg width="400" height="200" viewBox="0 0 400 200" xmlns="http://www.w3.org/2000/svg">
  <defs>
    <linearGradient id="bg" x1="0" y1="0" x2="1" y2="1"><stop offset="0%" stop-color="#0a0a2e"/><stop offset="100%" stop-color="#150530"/></linearGradient>
    <filter id="glow"><feGaussianBlur stdDeviation="2.5"/><feMerge><feMergeNode/><feMergeNode in="SourceGraphic"/></feMerge></filter>
  </defs>
  <rect width="400" height="200" fill="url(#bg)"/>
  <line x1="0" y1="50" x2="400" y2="50" stroke="#D4A843" opacity=".06" stroke-width="1"/>
  <line x1="0" y1="100" x2="400" y2="100" stroke="#D4A843" opacity=".1" stroke-width="1"/>
  <line x1="0" y1="150" x2="400" y2="150" stroke="#D4A843" opacity=".06" stroke-width="1"/>
  <line x1="100" y1="0" x2="100" y2="200" stroke="#D4A843" opacity=".06"/>
  <line x1="200" y1="0" x2="200" y2="200" stroke="#D4A843" opacity=".1"/>
  <line x1="300" y1="0" x2="300" y2="200" stroke="#D4A843" opacity=".06"/>
  <circle cx="310" cy="45" r="28" fill="#D4A843" opacity=".12" filter="url(#glow)"/>
  <circle cx="310" cy="45" r="14" fill="#D4A843" opacity=".35"/>
  <rect x="40" y="80" width="28" height="65" fill="#D4A843" opacity=".15" rx="1"/><rect x="72" y="60" width="22" height="85" fill="#D4A843" opacity=".25" rx="1"/><rect x="98" y="40" width="18" height="105" fill="#D4A843" opacity=".2" rx="1"/><rect x="120" y="70" width="30" height="75" fill="#D4A843" opacity=".12" rx="1"/><rect x="155" y="48" width="20" height="97" fill="#D4A843" opacity=".3" rx="1"/><rect x="180" y="62" width="26" height="83" fill="#D4A843" opacity=".18" rx="1"/><rect x="210" y="42" width="16" height="103" fill="#D4A843" opacity=".28" rx="1"/><rect x="230" y="55" width="24" height="90" fill="#D4A843" opacity=".22" rx="1"/><rect x="260" y="68" width="20" height="77" fill="#D4A843" opacity=".16" rx="1"/><rect x="285" y="38" width="14" height="107" fill="#D4A843" opacity=".2" rx="1"/>
  <text x="200" y="182" text-anchor="middle" font-family="monospace" font-size="26" fill="#D4A843" filter="url(#glow)" font-weight="bold" letter-spacing="6">NEON DISTRICT</text>
</svg>